<svg id="Capa_1" enable-background="new 0 0 512 512" height="512" viewBox="0 0 512 512" width="512" xmlns="http://www.w3.org/2000/svg"><g><circle cx="256" cy="256" fill="#9dcfff" r="256"/><path d="m511.738 267.299-25.907-25.907-17.417 4.836-176.785-176.785-37.055 176.236-223.958 22.144 163.781 163.781-14.012 13.559 66.665 66.665c2.972.102 5.953.173 8.95.173 137.597-.001 249.823-108.562 255.738-244.702z" fill="#72bbff"/><g><path d="m103.137 267.823h53.027v33.568h-53.027z" fill="#8b9aa6"/><path d="m355.836 267.823h53.027v33.568h-53.027z" fill="#697c84" transform="matrix(-1 0 0 -1 764.699 569.213)"/><path d="m218.217 183.286-192.048 58.107s-5.351 38.592 27.73 38.592h179.553z" fill="#7a83ea"/><path d="m238.548 394.806-58.163 32.01v18.346h65.189z" fill="#7a83ea"/><g fill="#4b5be3"><path d="m293.783 183.286 192.049 58.107s5.351 38.592-27.73 38.592h-179.554z"/><path d="m273.452 394.806 58.163 32.01v18.346h-65.189z"/></g></g><path d="m309.513 109.378c0-29.555-23.959-53.513-53.513-53.513s-53.513 23.959-53.513 53.513c0 .671.026 1.335.051 2h-.051l27.889 329.338c1.196 13.261 12.31 23.418 25.625 23.418 13.314 0 24.429-10.158 25.625-23.418l27.889-329.338h-.051c.023-.664.049-1.329.049-2z" fill="#fff"/><g><path d="m309.513 109.378c0-29.555-23.959-53.513-53.513-53.513v408.27c13.314 0 24.429-10.158 25.625-23.418l27.889-329.338h-.051c.024-.665.05-1.33.05-2.001z" fill="#e3eaee"/></g><path d="m246 419.984h20v60.658h-20z" fill="#7a83ea"/><path d="m276.045 104.296c-11.615-6.706-28.477-6.706-40.092 0-8.896 5.137-13.997 13.731-13.997 23.58l20-.001c0-1.839.454-4.212 3.998-6.258 5.537-3.198 14.552-3.198 20.091 0 3.545 2.046 3.999 4.419 3.999 6.259h20c0-9.849-5.103-18.443-13.999-23.58z" fill="#8b9aa6"/><path d="m256 419.984h10v60.658h-10z" fill="#4b5be3"/><g><g><path d="m276.045 104.296c-5.807-3.353-12.926-5.029-20.045-5.029v19.952c3.638 0 7.276.8 10.045 2.398 3.545 2.046 3.999 4.419 3.999 6.259h20c0-9.849-5.103-18.443-13.999-23.58z" fill="#697c84"/></g></g></g></svg>