<svg id="Capa_1" enable-background="new 0 0 512 512" height="512" viewBox="0 0 512 512" width="512" xmlns="http://www.w3.org/2000/svg"><g><path d="m338.002 204.565 8.818-22.338 52.904-5.878 31.155-40.56 37.622 5.29 24.688 27.628v11.169l-44.675 30.567-28.803 67.013h-14.108l-11.757-30.567-3.583-23.491z" fill="#ff8b41"/><g><path d="m125.796 0h-41.736v27.628l19.986 29.348v21.793l16.758 16.776-44.974 80.216h-31.155l-14.99 14.99 31.449 44.969v12.344h-42.323v11.757l32.918 65.002 27.865-12.344h11.52v41.736l35.269 91.36 26.453 66.425h7.054l20.048-241-20.048-243.372z" fill="#ffb54c"/><path d="m256.294 185.754-52.905-28.803 11.169-22.841v-17.132l-31.155-5.29v-28.452l33.199-46.233-23.31-27.896-33.402 18.521v484.372h19.398l32.331-59.371-4.115-64.073 94.972-74.813 35.526-20.827v-88.351z" fill="#ff8b41"/></g></g></svg>