<svg id="Capa_1" enable-background="new 0 0 512 512" height="512" viewBox="0 0 512 512" width="512" xmlns="http://www.w3.org/2000/svg"><path d="m466.825 210.825c0-115.26-92.493-208.917-207.305-210.797-116.579-1.908-213.64 92.907-214.343 209.498-.482 79.998 43.608 149.719 108.88 185.846 13.223 7.319 24.207 18.097 32.38 30.81l47.384 73.709c10.378 16.144 33.977 16.144 44.356 0l47.387-73.714c8.189-12.738 19.214-23.512 32.46-30.851 64.873-35.944 108.801-105.081 108.801-184.501z" fill="#fb2b3a"/><path d="m466.827 210.825c0 79.418-43.927 148.562-108.802 184.507-13.243 7.333-24.269 18.111-32.458 30.849l-47.393 73.714c-10.376 16.141-33.974 16.141-44.35 0l-.743-1.165c6.271-1.496 12.078-5.291 16.007-11.387l47.382-73.714c8.189-12.738 19.215-23.516 32.458-30.849 64.875-35.944 108.802-105.089 108.802-184.506 0-81.161-45.856-151.605-113.082-186.848 82.739 28.486 142.179 106.996 142.179 199.399z" fill="#e41f2d"/><circle cx="255.999" cy="210.825" fill="#ebebeb" r="150.684"/><path d="m406.686 210.825c0 83.223-67.464 150.687-150.687 150.687-16.884 0-33.128-2.774-48.29-7.911 7.602 1.186 15.378 1.795 23.31 1.795 83.223 0 150.687-67.464 150.687-150.677 0-66.36-42.885-122.695-102.459-142.797 72.187 11.18 127.439 73.59 127.439 148.903z" fill="#d3d1d1"/><path d="m324.26 332.683v12.508c-20.492 10.436-43.683 16.318-68.261 16.318s-47.77-5.882-68.261-16.318v-12.508c0-26.826 21.762-48.573 48.587-48.573h39.348c26.826.001 48.587 21.747 48.587 48.573z" fill="#fac600"/><path d="m324.26 332.688v12.508c-6.13 3.109-12.493 5.823-19.061 8.1v-13.675c0-25.688-11.632-47.522-34.605-55.505h5.079c26.826 0 48.587 21.746 48.587 48.572z" fill="#e0ae10"/><path d="m236.867 104.059-38.323 15.85c-8.146 3.369-12.43 12.349-9.922 20.801l5.493 18.508h61.882.001 61.882l5.493-18.508c2.508-8.451-1.775-17.431-9.922-20.801l-38.322-15.85c-12.249-5.067-26.011-5.067-38.262 0z" fill="#fac600"/><path d="m323.37 140.704-5.488 18.507h-20.594l6.539-26.534c1.897-6.407.511-13.077-3.269-18.112l12.902 5.342c8.144 3.371 12.42 12.346 9.91 20.797z" fill="#e0ae10"/><path d="m318.695 193.994h-.815v-34.776h-123.765v34.776h-.815c-7.591 0-13.745 6.154-13.745 13.745 0 7.591 6.154 13.745 13.745 13.745h.815v.44c0 24.671 20 44.671 44.671 44.671h34.422c24.671 0 44.671-20 44.671-44.671v-.44h.815c7.591 0 13.745-6.154 13.745-13.745.001-7.591-6.153-13.745-13.744-13.745z" fill="#fed2a4"/><path d="m332.442 207.739c0 7.588-6.156 13.744-13.745 13.744h-.821v.444c0 24.666-19.993 44.667-44.667 44.667h-12.834c23.242-1.566 41.61-20.923 41.61-44.567v-62.709l15.891-.101v34.776h.821c3.794 0 7.228 1.541 9.716 4.029s4.029 5.922 4.029 9.717z" fill="#ffbd86"/><path d="m255.999 159.218s-61.837 0-61.884 0c0 0 4.448 7.679 7.308 11.322 3.584 4.566 7.712 8.727 12.376 12.193 15.081 11.205 34.459 16.248 53.072 13.482 10.299-1.531 20.187-5.447 28.716-11.422 2.752-1.928 5.359-4.069 7.806-6.372 5.888-5.543 12.263-13.802 14.489-19.202h-61.883z" fill="#5a5a5a"/><path d="m317.882 159.21c-2.219 5.4-8.596 13.661-14.493 19.207-2.437 2.306-5.05 4.451-7.808 6.378-8.524 5.97-18.405 9.881-28.709 11.413-13.442 2-27.278-.073-39.611-5.605 7.239 1.226 14.668 1.343 21.98.263 10.304-1.532 20.185-5.458 28.723-11.428 2.744-1.927 5.356-4.072 7.808-6.378 4.16-3.911 8.567-9.195 11.574-13.851h20.536z" fill="#444"/><path d="m255.999 301.845c-9.734 0-17.625-7.891-17.625-17.625v-17.625h35.251v17.625c-.001 9.734-7.892 17.625-17.626 17.625z" fill="#fed2a4"/><path d="m238.368 266.601h35.262v14.099h-35.262z" fill="#ffbd86"/></svg>